<svg width="441" height="538" viewBox="0 0 441 538" fill="none" xmlns="http://www.w3.org/2000/svg">
<path d="M1.40846 138.64C0.548177 136.316 0.0416565 133.923 0.0416565 131.54L1.40846 138.64Z" fill="#0C0C0C"/>
<path d="M438.592 138.64L439.958 131.54C439.958 133.923 439.492 136.297 438.592 138.64Z" fill="#0C0C0C"/>
<path d="M439.958 108.423V131.54L438.592 138.64V115.543L439.958 108.423Z" fill="#0C0C0C"/>
<path d="M1.40846 115.543V138.64L0.0416565 131.54V108.423L1.40846 115.543Z" fill="#0C0C0C"/>
<path d="M219.96 0.533569C341.468 0.533569 439.958 29.1022 439.958 64.3239C439.958 99.6946 341.468 128.184 219.96 128.184C98.5156 128.184 0.0336304 99.7045 0.0336304 64.3239C0.0416704 29.1022 98.5156 0.533569 219.96 0.533569Z" fill="#0B0A0A"/>
<path d="M438.592 115.543V138.64L366.658 517.916V494.859L438.592 115.543Z" fill="#0C0C0C"/>
<path d="M73.3584 494.859V517.916L1.40848 138.64V115.543L73.3584 494.859Z" fill="#0C0C0C"/>
<path d="M219.96 172.213C333.227 172.213 426.459 147.488 438.592 115.543L366.658 494.859C366.658 518.413 301.003 537.359 219.96 537.359C138.997 537.359 73.3584 518.413 73.3584 494.859L1.40848 115.543C13.5569 147.478 106.773 172.213 219.96 172.213Z" fill="#0B0A0A"/>
<path d="M440.457 108.393C440.569 108.751 440.626 109.118 440.746 109.476L440.634 108.85C440.585 108.691 440.505 108.542 440.457 108.393Z" fill="#146EB4"/>
<path d="M440.224 107.509C440.047 106.854 439.87 106.169 439.749 105.514C439.862 106.179 440.047 106.854 440.224 107.509Z" fill="#146EB4"/>
</svg>
