<svg width="439" height="537" viewBox="0 0 439 537" fill="none" xmlns="http://www.w3.org/2000/svg">
<path d="M1.3686 138.061C0.512221 135.738 0.00799942 133.346 0.00799942 130.964L1.3686 138.061Z" fill="#8C3323"/>
<path d="M436.568 138.061L437.928 130.964C437.928 133.346 437.464 135.719 436.568 138.061Z" fill="#8C3323"/>
<path d="M437.928 107.854V130.964L436.568 138.061V114.972L437.928 107.854Z" fill="#8C3323"/>
<path d="M1.3686 114.972V138.061L0.00799942 130.964V107.854L1.3686 114.972Z" fill="#8C3323"/>
<path d="M218.928 0C339.885 0 437.928 28.5593 437.928 63.7695C437.928 99.1286 339.885 127.608 218.928 127.608C98.035 127.608 0 99.1385 0 63.7695C0.00800351 28.5593 98.035 0 218.928 0Z" fill="#E15343"/>
<path d="M436.568 114.972V138.061L364.96 517.214V494.164L436.568 114.972Z" fill="#8C3323"/>
<path d="M72.992 494.164V517.214L1.3686 138.061V114.972L72.992 494.164Z" fill="#8C3323"/>
<path d="M218.928 171.624C331.682 171.624 424.49 146.906 436.568 114.972L364.96 494.164C364.96 517.71 299.604 536.65 218.928 536.65C138.333 536.65 72.992 517.71 72.992 494.164L1.3686 114.972C13.4619 146.896 106.255 171.624 218.928 171.624Z" fill="#E15343"/>
<path d="M438.424 107.824C438.537 108.182 438.593 108.549 438.713 108.906L438.601 108.281C438.553 108.122 438.472 107.973 438.424 107.824Z" fill="#146EB4"/>
<path d="M438.192 106.941C438.016 106.286 437.84 105.601 437.72 104.946C437.832 105.611 438.016 106.286 438.192 106.941Z" fill="#146EB4"/>
</svg>
