<svg width="640" height="449" viewBox="0 0 640 449" fill="none" xmlns="http://www.w3.org/2000/svg">
<path d="M349.9 204.3H283.8V144.9H349.9V204.3ZM349.9 0H283.8V60.7H349.9V0ZM428.1 144.8H362V204.2H428.1V144.8ZM271.8 72.7H205.7V132.8H271.8V72.7ZM349.9 72.7H283.8V132.8H349.9V72.7ZM626.7 172.7C612.3 163 579.1 159.5 553.6 164.3C550.3 140.3 536.9 119.4 512.5 100.6L498.5 91.3L489.2 105.3C470.8 133.1 465.8 178.9 485.5 209.1C476.8 213.8 459.7 220.2 437.1 219.8H2.40001C-6.29999 270.6 8.20001 336.6 46.4 381.9C83.5 425.8 139.1 448.1 211.8 448.1C369.2 448.1 485.7 375.6 540.2 243.9C561.6 244.3 607.8 244 631.5 198.7C633 196.2 638.1 185.5 640 181.6L626.7 172.7ZM115.6 144.8H49.6V204.2H115.7V144.8H115.6ZM193.7 144.8H127.6V204.2H193.7V144.8ZM271.8 144.8H205.7V204.2H271.8V144.8ZM193.7 72.7H127.6V132.8H193.7V72.7Z" fill="#1882BD"/>
</svg>
