<svg width="24" height="22" viewBox="0 0 24 22" fill="none" xmlns="http://www.w3.org/2000/svg">
<path d="M7.172 19.655C6.258 18.935 5.282 18.245 4.616 17.275C3.214 15.563 2.134 13.581 1.396 11.498C0.949997 10.143 0.795997 8.68996 0.221997 7.38796C-0.380003 6.44396 0.324997 5.40996 1.36 5.10896C1.82 5.02096 2.632 4.58596 1.653 4.89696C0.774997 5.54096 0.689997 4.31196 1.59 4.23496C2.205 4.15296 2.43 3.64996 2.22 3.19796C1.561 2.76796 3.82 2.29496 2.683 1.65396C1.501 0.375957 4.34 0.129956 3.64 1.57996C3.473 2.69496 5.624 1.37596 5.125 2.66296C5.632 3.28196 7.025 2.80396 6.99 3.67196C7.73 3.72196 7.983 4.34396 8.677 4.39196C9.397 4.71696 10.7 4.97196 10.944 5.78296C10.231 6.34796 8.579 4.61696 8.5 6.17996C8.715 8.48996 8.66 10.869 9.505 13.068C9.905 14.4 10.874 15.448 11.749 16.486C12.586 17.502 13.72 18.216 14.876 18.819C15.89 19.297 16.983 19.614 18.089 19.813C18.537 19.47 19.329 18.196 20.027 18.733C20.06 19.337 18.639 19.996 19.96 19.929C20.736 19.695 21.274 20.529 21.913 19.777C22.501 20.474 24.359 19.331 23.94 20.757C23.374 21.121 22.548 20.901 21.981 21.403C21.046 20.936 20.301 21.821 19.266 21.709C18.116 21.915 16.947 21.999 15.782 22C13.87 21.849 11.917 21.785 10.098 21.12C9.073 20.822 8.073 20.238 7.172 19.655ZM8.787 20.355C9.787 20.787 10.766 21.243 11.862 21.381C13.602 21.622 15.399 21.995 17.145 21.655C16.355 21.298 15.537 21.795 14.75 21.4C13.806 21.603 12.793 21.348 11.833 21.223C10.741 20.737 9.563 20.403 8.541 19.771C7.264 19.305 9.201 20.369 9.547 20.456C10.345 20.909 8.669 20.223 8.432 20.035C7.764 19.66 7.678 19.738 8.366 20.119C8.505 20.2 8.642 20.285 8.786 20.354L8.787 20.355ZM6.883 19.009C7.853 19.368 6.879 18.327 6.434 18.387C6.237 18.046 5.682 17.83 6.074 17.647C5.369 17.891 5.336 16.717 5.004 16.884C4.259 16.649 4.714 15.815 3.827 15.304C3.746 14.764 2.945 14.296 2.689 13.482C2.576 13.066 1.784 11.869 2.271 12.982C2.685 14.054 3.414 14.972 4.021 15.889C4.491 16.762 5.048 17.675 5.906 18.219C6.196 18.497 6.474 18.922 6.883 19.009ZM4.09 15.942C4.267 16.259 4.123 15.796 4.09 15.942ZM8.044 19.439C8.259 19.343 7.735 19.319 8.044 19.439ZM8.57 19.631C8.516 19.366 8.33 19.779 8.57 19.631ZM9.23 19.906C9.543 19.607 8.746 19.718 9.23 19.906ZM10.358 20.536C10.549 20.254 9.748 20.429 10.358 20.536ZM8.19 19.023C8.677 18.708 7.56 19.019 8.19 19.023ZM8.684 19.269C8.67 19.103 8.508 19.344 8.684 19.269ZM11.154 20.811C11.552 21.061 13.474 21.361 12.27 20.914C12.069 20.956 10.039 20.34 11.154 20.811ZM7.233 17.757C7.194 17.59 6.617 17.572 7.233 17.757ZM8.383 18.427C8.683 18.218 7.762 18.267 8.383 18.427ZM9.35 19.02C9.78 18.858 8.653 18.857 9.35 19.02ZM6.765 17.247C7.231 17.605 8.645 17.293 7.479 17.034C6.949 16.751 5.752 16.558 6.567 17.204L6.765 17.247ZM10.005 19.225C10.199 18.895 9.191 19.036 10.005 19.225ZM9.021 18.442C10.161 18.765 8.063 17.722 8.74 18.324L8.89 18.392L9.021 18.442ZM10.995 19.583C12.074 19.593 10.02 19.435 10.995 19.583ZM6.35 16.623C6.308 16.422 6.084 16.64 6.35 16.623ZM12.82 20.607C12.849 20.244 12.468 20.877 12.82 20.607ZM8.191 17.751C8.126 17.56 7.854 17.743 8.191 17.751ZM6.452 16.497C7.072 16.46 5.604 16.224 6.452 16.497ZM4.392 15.165C4.315 14.868 3.718 14.631 4.392 15.165ZM9.8 18.6C9.746 18.628 9.686 18.47 9.8 18.6ZM13.166 20.665C13.156 20.468 12.983 20.74 13.166 20.665ZM9.502 18.292C9.562 18.037 8.973 18.215 9.502 18.292ZM6.995 16.7C7.455 16.651 6.256 16.389 6.995 16.7ZM11.237 19.337C11.955 19.052 10.537 19.197 11.237 19.337ZM9.03 17.84C9.858 17.946 8.045 17.277 8.849 17.78L9.03 17.84ZM11.907 19.608C12.68 19.146 12.425 20.69 13.218 19.738C14 19.168 12.543 20.445 13.507 19.841C14.204 19.374 15.234 20.061 15.884 20.286C16.352 20.263 16.807 20.691 17.287 20.431C18.21 20.181 15.481 20.061 16.197 19.621C15.352 19.866 14.727 19.327 14.312 18.786C13.364 18.567 12.268 18.083 11.795 17.244C11.603 16.929 12.074 17.288 11.629 16.774C11.058 16.266 10.773 15.689 10.389 15.072C9.932 14.828 9.879 14.109 9.832 15.048C9.836 14.455 9.279 14.056 9.143 14.222C9.141 13.651 9.739 13.937 9.32 13.515C9.23 12.923 8.933 12.306 8.844 11.638C8.706 11.316 8.824 10.627 8.371 11.356C8.206 12.126 8.316 10.409 8.573 10.976C8.91 10.397 8.453 10.466 8.433 10.546C8.653 10.058 8.573 9.36596 8.376 9.62996C8.493 9.11296 8.561 7.72796 8.201 7.97396C8.419 7.43396 8.615 5.50096 7.667 6.23796C7.283 6.24296 6.619 6.37796 6.304 6.53396C7.29 7.07696 6.205 6.72996 5.804 6.64396C5.752 7.14596 5.354 6.92896 4.858 6.93396C5.651 7.03196 4.472 7.74396 4.017 7.46796C3.427 7.74996 4.527 8.45496 4.029 8.67296C4.09 9.00096 3.124 8.55396 3.199 9.31296C2.626 9.07196 3.121 10.213 3.408 9.82696C4.383 10.091 4.094 10.693 4.119 11.264C3.96 11.597 3.334 10.481 3.979 10.533C3.471 9.70596 3.417 10.234 2.994 10.618C2.895 10.646 4.073 11.165 3.334 11.421C3.984 11.521 4.002 12.091 4.134 12.451C4.525 12.858 4.445 12.001 4.913 12.491C4.617 12.055 3.346 11.263 4.369 11.517C4.364 11.078 4.184 10.724 4.498 10.733C4.808 10.171 4.173 12.12 4.873 11.405C5.066 11.32 5.114 10.842 5.463 11.45C5.968 11.948 5.645 12.308 4.932 11.853C5.059 12.286 5.886 12.44 5.731 13.118C5.896 13.713 6.126 13.494 6.327 13.46C6.485 14.038 6.574 13.613 6.582 13.337C7.303 13.492 7.134 13.918 7.36 14.217C7.857 14.441 6.648 12.695 7.502 13.691C8.4 14.502 7.839 14.841 7.032 14.711C7.542 14.67 7.707 15.401 8.345 15.375C8.927 15.652 9.321 16.715 8.318 16.272C7.97 15.959 6.739 15.572 7.745 16.168C8.674 16.598 9.411 16.856 10.307 17.395C10.947 17.853 11.225 18.377 11.467 18.481C10.929 18.738 9.844 18.275 10.65 18.133C10.147 18.042 9.582 17.788 10.063 18.413C10.473 18.756 11.513 18.719 11.7 18.758C11.541 19.106 11.27 19.134 11.706 19.161C11.22 19.421 11.862 19.46 11.907 19.608ZM10.913 16.8C10.617 16.49 10.54 15.91 10.86 16.415C11.024 16.481 11.385 17.362 10.913 16.8ZM14.151 18.857C14.336 18.846 14.157 18.997 14.151 18.857ZM10.445 16.041C10.552 16.402 10.434 15.573 10.445 16.041ZM10.123 15.608C10.593 15.812 9.751 14.889 10.123 15.608ZM6.223 12.916C6.441 12.857 6.33 13.29 6.223 12.916ZM9.327 14.598C9.485 15.022 9.461 14.094 9.327 14.598ZM7.134 13.073C7.457 13.334 6.979 12.795 7.134 13.073ZM9.016 13.677C8.664 12.887 9.266 13.245 9.094 13.807L9.016 13.677ZM5.77 11.512C5.612 11.252 5.352 10.492 5.436 10.26C5.512 10.638 6.24 11.887 5.793 10.778C5.299 9.84796 6.383 11.08 6.495 11.312C6.546 11.542 6.19 11.249 6.431 11.79C5.991 11.173 6.171 12.13 5.77 11.512ZM4.767 10.821C4.997 11.234 4.808 10.218 4.767 10.821ZM5.218 10.976C5.583 11.61 5.433 10.521 5.218 10.976ZM4.133 10.136C3.759 9.76596 3.489 9.42296 4.15 9.90596C4.405 9.91596 3.584 9.12796 4.211 9.65596C4.871 9.77596 4.537 10.738 4.133 10.136ZM4.703 10.121C4.92 9.90596 4.818 10.333 4.703 10.121ZM5.053 10.234C5.453 10.492 4.725 9.61696 5.053 10.234ZM4.356 9.56696C3.27 8.60096 5.721 10.073 4.533 9.74696L4.356 9.56696ZM7.467 11.375C6.997 11.093 7.343 9.39096 7.503 10.555C7.96 10.407 7.478 11.156 7.818 11.149C7.765 11.622 7.611 11.792 7.467 11.375ZM8.617 12.055C8.715 12.405 8.664 11.542 8.617 12.055ZM8.417 11.857C8.47 11.638 8.423 12.115 8.417 11.857ZM4.57 9.24996C3.873 8.28696 6.597 10.223 5.017 9.49396C4.852 9.45096 4.653 9.43496 4.57 9.24996ZM6.786 10.425C6.933 10.559 6.72 9.61496 6.786 10.425ZM8.468 11.504C8.598 11.042 8.478 11.809 8.468 11.504ZM4.676 8.88196C5.091 8.79396 6.394 9.61096 5.197 9.11596C5.064 8.96796 4.78 9.03596 4.676 8.88196ZM8.236 10.657C8.28 9.82796 8.484 10.162 8.238 10.775L8.236 10.657ZM4.985 8.59396C5.154 8.34596 4.536 7.47396 5.074 8.28096C5.306 8.46596 5.746 8.59096 5.357 8.66796C5.968 9.20696 5.208 8.81396 4.985 8.59396ZM8.06 10.398C8.177 9.45396 8.163 10.951 8.06 10.398ZM4.632 7.72196C4.761 7.66696 4.7 7.89396 4.632 7.72196ZM5.434 8.19996C5.814 8.68296 5.64 7.76596 5.434 8.19996ZM7.697 9.45896C7.74 9.70096 7.695 9.29196 7.697 9.45896ZM7.566 9.16896C7.858 9.57896 7.252 8.39296 7.566 9.16896ZM7.373 8.65996C7.553 9.06296 7.32 8.33996 7.373 8.65996ZM7.687 8.14996C7.471 7.76996 7.959 6.47596 8.013 7.27896C7.786 7.90396 7.948 8.25396 8.106 7.41496C8.399 6.75496 8.044 8.71796 7.687 8.14996ZM8.009 6.22596C8.103 6.11096 8.03 6.36496 8.009 6.22596ZM7.471 16.839C7.487 16.91 7.343 16.728 7.471 16.839ZM8.581 17.4C9.197 17.559 9.194 17.304 8.636 17.229C8.336 16.949 7.39 16.654 8.237 17.194C8.293 17.336 8.471 17.333 8.58 17.4H8.581ZM6.389 15.945C6.729 16.198 7.669 16.664 6.873 16.041C7.142 15.729 6.359 15.563 6.619 15.355C5.959 14.951 6.099 14.987 6.561 14.999C5.767 14.645 6.675 14.671 6.632 14.489C6.326 14.429 5.112 13.95 5.827 14.529C5.101 14.159 5.654 14.667 5.435 14.613C4.692 14.411 6.095 15.178 5.317 14.988C5.742 15.325 6.463 15.852 5.497 15.345C5.369 15.528 6.188 15.805 6.389 15.945ZM7.549 16.612C8.96 17.066 6.858 16.056 7.549 16.612ZM13.489 20.21C13.509 19.93 13.297 20.45 13.489 20.21ZM14.101 20.467C14.426 20.152 14.114 20.97 14.64 20.39C14.646 19.975 14.624 19.73 14.035 20.234C13.873 20.324 13.801 20.707 14.101 20.467ZM4.408 14.38C4.308 13.987 3.708 13.99 4.408 14.38ZM5.06 14.808C4.818 14.406 4.196 14.444 5.06 14.808ZM8.77 17.045C9.132 17.366 10.433 17.281 9.21 17.085C9.028 16.816 8.059 16.881 8.77 17.045ZM13.868 20.194C14.426 19.726 13.328 20.402 13.868 20.194ZM15.028 20.99C15.031 20.84 14.788 21.056 15.028 20.99ZM15.029 20.78C15.646 20.126 14.431 20.819 15.029 20.78ZM2.805 13.038C2.279 12.288 2.478 11.95 1.97 11.338C1.874 10.868 1.1 9.80496 1.57 10.932C2 11.591 2.128 12.611 2.805 13.038ZM14.835 20.572C15.971 19.838 14.37 20.252 14.835 20.572ZM15.702 20.912C16.272 20.424 15.342 20.81 15.702 20.912ZM4.215 13.55C4.378 13.308 3.795 13.519 4.215 13.55ZM15.521 20.679C16.072 20.324 15.395 20.379 15.421 20.711L15.521 20.679ZM8.05 15.97C8.03 15.73 7.759 15.99 8.05 15.97ZM8.511 16.236C8.365 15.939 8.286 16.283 8.511 16.236ZM16.405 20.92C17.11 20.41 15.977 20.822 16.257 21.016L16.405 20.92ZM16.135 20.79C16.709 20.308 15.528 21.003 16.135 20.79ZM17.515 21.708C17.901 21.45 17.046 21.625 17.515 21.708ZM4.569 13.376C5.086 13.492 6.635 14.65 5.721 13.456C5.253 13.318 5.534 12.173 5.056 12.376C5.376 12.911 5.32 13.139 4.647 12.802C3.801 12.389 4.172 13.006 4.337 13.176C4.112 13.228 4.635 13.372 4.569 13.376ZM2.213 11.516C2.305 11.133 1.36 9.40896 1.767 10.652C1.913 10.912 1.898 11.406 2.213 11.516ZM6.537 14.182C6.524 14.15 6.271 13.959 6.537 14.182ZM7.193 14.334C7.193 13.929 6.468 14.17 7.193 14.334ZM12.875 17.917C12.767 17.639 12.447 17.911 12.875 17.917ZM13.148 18.116C13.108 17.961 12.991 18.146 13.148 18.116ZM15.401 19.535C15.617 19.375 15.131 19.515 15.401 19.535ZM3.39 11.816C4.01 11.576 2.726 11.645 3.39 11.816ZM12.375 17.477C12.368 17.076 11.98 17.577 12.375 17.477ZM3.145 11.246C3.543 11.111 2.777 11.157 3.145 11.246ZM4.3 11.806C4.293 11.673 4.178 11.856 4.3 11.806ZM18.39 20.446C18.903 20.342 20.069 20.706 20.257 20.31C19.636 20.295 18.107 19.872 18.035 20.411L18.171 20.433L18.391 20.446H18.39ZM4.668 11.898C4.677 11.491 4.351 11.883 4.668 11.898ZM1.63 9.78996C1.492 9.01496 1.105 9.67196 1.63 9.78996ZM2.354 9.97196C2.363 9.72296 1.691 9.74796 2.354 9.97196ZM2.768 10.175C2.674 10.297 2.648 10.078 2.768 10.175ZM5.373 11.845C5.495 11.733 5.083 11.762 5.373 11.845ZM2.493 9.71696C2.423 9.13196 1.653 9.62896 2.493 9.71696ZM1.007 8.75296C0.986997 8.48296 0.862997 8.85496 1.007 8.75296ZM1.228 8.58596C1.192 8.26596 1.038 8.62596 1.228 8.58596ZM2.448 9.31496C2.965 9.11196 1.508 8.89496 2.343 9.27596L2.448 9.31496ZM18.782 19.404C19.112 19.101 18.362 19.31 18.782 19.404ZM20.756 20.427C20.888 20.035 20.422 20.478 20.756 20.427ZM2.573 8.67596C2.628 8.29696 2.164 8.75096 2.573 8.67596ZM0.836997 7.51296C0.743997 6.97796 0.756997 6.03896 1.649 6.35696C0.457997 6.59296 2.473 7.83696 2.219 6.85496C2.719 6.87896 3.199 6.55896 2.935 7.04496C3.922 6.93596 4.606 6.08096 5.559 6.19996C6.301 6.10196 7.113 6.02796 7.913 5.72896C8.571 5.68096 9.204 4.97296 8.843 4.55396C7.947 4.47796 7.008 4.58996 6.016 4.78696C4.918 5.01496 3.92 5.44896 2.811 5.63596C1.731 5.78096 3.028 6.03596 2.719 6.09196C2.155 6.28796 3.391 6.41996 2.646 6.62596C2.186 6.53796 1.706 6.37996 1.903 5.89596C0.867997 6.02896 -0.0420034 6.45896 0.775997 7.51196L0.836997 7.51296ZM3.331 6.24296C3.574 5.34896 4.631 6.97796 3.729 6.36096C3.621 6.28096 3.444 6.21596 3.331 6.24296ZM3.378 5.80896C3.728 5.54896 3.564 5.95496 3.378 5.80896ZM3.823 5.81696C3.855 5.40596 4.841 6.03496 3.986 5.96496L3.823 5.81696ZM4.431 5.57196C4.653 5.31196 4.495 5.80296 4.431 5.57196ZM4.587 5.46796C4.957 5.02396 6.682 5.18496 5.419 5.42496C5.081 5.16996 4.821 5.57496 4.587 5.46796ZM6.838 5.12096C7.956 5.55296 6.782 3.90696 6.838 5.12096ZM7.477 5.11696C7.71 4.50496 8.383 4.87196 7.585 4.99396C7.602 5.05896 7.561 5.30996 7.477 5.11696ZM2.322 8.36196C3.019 7.93496 1.581 7.99196 2.322 8.36196ZM2.837 8.50596C3.082 8.24596 2.306 8.39996 2.837 8.50596ZM1.317 7.42596C1.716 7.12096 0.845997 7.30996 1.317 7.42596ZM21.92 20.316C21.932 19.961 21.616 20.476 21.92 20.316ZM19.827 18.887C19.887 18.478 19.557 18.923 19.827 18.887ZM22.497 20.454C23.054 20.454 24.185 20.281 22.972 20.281C22.782 20.311 21.864 20.305 22.497 20.454ZM3.29 8.25396C3.741 8.22396 3.996 7.75696 3.203 7.78396C1.973 7.65696 4.287 8.20396 3.045 8.04796C2.878 8.15796 3.281 8.28496 3.29 8.25496V8.25396ZM3.688 8.45596C3.64 8.16596 3.548 8.60996 3.688 8.45596ZM4.158 7.19896C4.355 6.95596 3.888 7.13396 4.158 7.19896ZM2.658 4.69096C3.464 4.41696 4.565 4.10996 4.945 4.82596C4.558 4.35996 4.789 3.90196 5.155 4.58296C5.671 5.27196 5.93 4.26996 5.593 4.03796C5.976 4.51396 6.412 4.73896 5.85 4.06796C6.46 3.33396 4.627 4.16496 4.21 4.15596C4.01 4.24596 2.138 4.63296 2.658 4.69096ZM3.13 3.78796C3.59 3.44096 4.718 3.99396 3.994 3.44296C3.924 3.38096 2.408 3.86096 3.13 3.78796ZM4.804 3.85696C5.342 3.86996 4.573 3.13496 5.213 3.46796C5.108 3.12396 4.467 3.05996 4.154 2.92296C3.977 3.23696 4.514 3.86096 4.804 3.85696ZM3.424 2.33696C3.61 2.08496 3.098 2.46496 3.424 2.33696ZM4.108 2.50096C4.974 2.38596 3.888 2.12796 3.934 2.49096L4.108 2.50096ZM2.831 1.50096C2.221 0.704957 3.977 1.63496 3.358 0.800957C2.836 0.385957 2.335 1.26896 2.831 1.50096ZM10.656 5.71596C10.936 5.21996 9.501 5.04796 10.468 5.54096C10.557 5.57096 10.537 5.75096 10.656 5.71596Z" fill="#BE1414"/>
</svg>
