<svg width="16" height="16" viewBox="0 0 16 16" fill="none" xmlns="http://www.w3.org/2000/svg">
<path d="M15.698 7.28698L8.71199 0.301982C8.61634 0.206284 8.50277 0.130369 8.37777 0.0785749C8.25277 0.0267807 8.11879 0.00012207 7.98349 0.00012207C7.84818 0.00012207 7.71421 0.0267807 7.58921 0.0785749C7.46421 0.130369 7.35064 0.206284 7.25499 0.301982L5.80499 1.75198L7.64499 3.59198C7.86199 3.51789 8.09546 3.5063 8.31873 3.55853C8.54201 3.61076 8.7461 3.72471 8.90772 3.88737C9.06934 4.05004 9.18198 4.25486 9.23277 4.47847C9.28357 4.70208 9.27047 4.93546 9.19499 5.15198L10.968 6.92598C11.2303 6.83362 11.5162 6.83334 11.7787 6.92519C12.0412 7.01703 12.2646 7.19553 12.4121 7.43128C12.5596 7.66704 12.6225 7.94599 12.5903 8.22222C12.5581 8.49845 12.4328 8.75547 12.235 8.95098C12.0348 9.15243 11.7708 9.27811 11.4882 9.30656C11.2057 9.33501 10.922 9.26447 10.6856 9.10698C10.4492 8.94949 10.2749 8.71482 10.1924 8.44307C10.1098 8.17131 10.1242 7.87932 10.233 7.61698L8.57999 5.96298V10.316C8.83125 10.4404 9.03229 10.6471 9.1496 10.9017C9.26692 11.1563 9.29342 11.4435 9.2247 11.7153C9.15597 11.9871 8.99616 12.2271 8.77191 12.3954C8.54767 12.5636 8.27252 12.65 7.99235 12.64C7.71217 12.63 7.44389 12.5242 7.23221 12.3404C7.02054 12.1566 6.87827 11.9057 6.8291 11.6297C6.77994 11.3537 6.82686 11.0692 6.96204 10.8236C7.09722 10.578 7.3125 10.3861 7.57199 10.28V5.88698C7.42228 5.82564 7.28619 5.73527 7.17157 5.62108C7.05695 5.50689 6.96606 5.37114 6.90415 5.22166C6.84224 5.07219 6.81053 4.91193 6.81085 4.75014C6.81116 4.58835 6.8435 4.42822 6.90599 4.27898L5.09299 2.46498L0.302989 7.25498C0.207291 7.35063 0.131376 7.4642 0.079582 7.5892C0.0277878 7.7142 0.00112915 7.84818 0.00112915 7.98348C0.00112915 8.11879 0.0277878 8.25277 0.079582 8.37776C0.131376 8.50276 0.207291 8.61633 0.302989 8.71198L7.28899 15.698C7.38464 15.7937 7.49821 15.8696 7.62321 15.9214C7.74821 15.9732 7.88219 15.9998 8.01749 15.9998C8.15279 15.9998 8.28677 15.9732 8.41177 15.9214C8.53677 15.8696 8.65034 15.7937 8.74599 15.698L15.699 8.74498C15.892 8.55167 16.0004 8.28966 16.0004 8.01648C16.0004 7.7433 15.892 7.48129 15.699 7.28798" fill="#7B1C07"/>
</svg>
