<svg width="20" height="24" viewBox="0 0 20 24" fill="none" xmlns="http://www.w3.org/2000/svg">
<path d="M10.503 0C10.348 0 10.188 0.008 10.024 0.021C5.797 0.354 6.918 4.828 6.854 6.319C6.777 7.412 6.554 8.273 5.803 9.34C4.918 10.391 3.676 12.09 3.087 13.861C2.809 14.693 2.677 15.545 2.8 16.35C2.761 16.384 2.724 16.418 2.689 16.485C2.429 16.753 2.24 17.086 2.027 17.324C1.828 17.523 1.542 17.591 1.23 17.724C0.917 17.86 0.572 17.993 0.366 18.405C0.276 18.593 0.23 18.798 0.234 19.006C0.234 19.205 0.261 19.407 0.289 19.542C0.347 19.941 0.405 20.271 0.328 20.512C0.0799997 21.192 0.0489997 21.658 0.223 21.997C0.397 22.331 0.758 22.466 1.162 22.598C1.973 22.798 3.072 22.733 3.937 23.197C4.863 23.664 5.803 23.868 6.553 23.667C7.079 23.552 7.523 23.204 7.761 22.722C8.348 22.719 8.991 22.453 10.021 22.388C10.72 22.33 11.595 22.655 12.599 22.587C12.624 22.722 12.662 22.786 12.713 22.921L12.716 22.924C13.107 23.702 13.829 24.056 14.6 23.995C15.371 23.935 16.192 23.459 16.857 22.689C17.488 21.924 18.54 21.605 19.235 21.186C19.583 20.987 19.864 20.717 19.884 20.333C19.907 19.933 19.685 19.521 19.17 18.956V18.859L19.167 18.856C18.997 18.656 18.917 18.321 18.829 17.93C18.744 17.529 18.647 17.144 18.337 16.884H18.334C18.275 16.83 18.211 16.817 18.146 16.749C18.09 16.711 18.025 16.687 17.956 16.685C18.387 15.407 18.22 14.135 17.783 12.991C17.25 11.581 16.318 10.353 15.608 9.508C14.812 8.503 14.032 7.551 14.047 6.139C14.074 3.987 14.284 0.006 10.503 0ZM11.032 3.405H11.045C11.258 3.405 11.441 3.467 11.629 3.603C11.82 3.738 11.959 3.935 12.068 4.136C12.173 4.395 12.226 4.595 12.234 4.86C12.234 4.84 12.24 4.82 12.24 4.801V4.905C12.238 4.898 12.236 4.89 12.236 4.884L12.232 4.86C12.23 5.103 12.179 5.343 12.082 5.566C12.035 5.691 11.963 5.806 11.869 5.901C11.84 5.885 11.812 5.871 11.781 5.859C11.676 5.814 11.582 5.795 11.496 5.726C11.425 5.698 11.351 5.675 11.277 5.66C11.326 5.601 11.422 5.527 11.459 5.462C11.512 5.334 11.541 5.198 11.547 5.06V5.041C11.549 4.906 11.529 4.77 11.486 4.641C11.441 4.506 11.385 4.44 11.303 4.307C11.219 4.241 11.136 4.175 11.036 4.175H11.02C10.927 4.175 10.844 4.205 10.758 4.307C10.663 4.401 10.592 4.514 10.553 4.641C10.5 4.768 10.469 4.905 10.463 5.041V5.06C10.465 5.149 10.471 5.239 10.483 5.327C10.29 5.26 10.045 5.192 9.876 5.125C9.866 5.06 9.86 4.993 9.858 4.926V4.906C9.85 4.642 9.901 4.38 10.008 4.137C10.09 3.918 10.24 3.731 10.438 3.604C10.609 3.475 10.817 3.405 11.032 3.405ZM8.07 3.464H8.106C8.248 3.464 8.376 3.512 8.505 3.599C8.651 3.728 8.769 3.887 8.849 4.064C8.939 4.263 8.99 4.465 9.002 4.731V4.735C9.009 4.869 9.008 4.936 9 5.001V5.081C8.97 5.088 8.944 5.099 8.917 5.105C8.765 5.16 8.643 5.24 8.524 5.305C8.536 5.216 8.537 5.126 8.527 5.038V5.023C8.515 4.89 8.488 4.824 8.445 4.69C8.414 4.588 8.357 4.497 8.279 4.423C8.23 4.378 8.164 4.355 8.096 4.359H8.075C8.004 4.365 7.945 4.4 7.889 4.491C7.825 4.568 7.784 4.662 7.769 4.761C7.742 4.869 7.734 4.98 7.746 5.092V5.106C7.758 5.241 7.783 5.307 7.827 5.44C7.872 5.574 7.924 5.64 7.992 5.708C8.003 5.717 8.013 5.726 8.026 5.732C7.956 5.789 7.909 5.802 7.85 5.868C7.813 5.896 7.77 5.928 7.719 5.936C7.615 5.811 7.523 5.676 7.444 5.534C7.348 5.324 7.298 5.096 7.289 4.867C7.272 4.641 7.3 4.415 7.369 4.199C7.424 4.002 7.521 3.82 7.652 3.664C7.78 3.531 7.912 3.464 8.07 3.464ZM9.441 5.17C9.772 5.17 10.173 5.235 10.656 5.569C10.949 5.769 11.179 5.838 11.709 6.037H11.712C11.967 6.173 12.117 6.303 12.19 6.436V6.305C12.263 6.452 12.268 6.623 12.206 6.775C12.083 7.086 11.69 7.419 11.142 7.618V7.62C10.874 7.755 10.641 7.953 10.367 8.085C10.091 8.22 9.779 8.377 9.355 8.352C9.203 8.36 9.05 8.337 8.907 8.285C8.797 8.225 8.689 8.159 8.585 8.087C8.39 7.952 8.222 7.755 7.973 7.622V7.617H7.968C7.568 7.371 7.352 7.105 7.282 6.906C7.213 6.638 7.277 6.437 7.475 6.306C7.699 6.171 7.855 6.035 7.958 5.97C8.062 5.896 8.101 5.868 8.134 5.839H8.136V5.836C8.305 5.634 8.572 5.367 8.975 5.235C9.114 5.199 9.269 5.17 9.441 5.17ZM12.24 7.313C12.599 8.73 13.437 10.788 13.976 11.786C14.262 12.32 14.831 13.445 15.078 14.81C15.234 14.805 15.407 14.828 15.591 14.874C16.237 13.203 15.045 11.407 14.502 10.908C14.281 10.707 14.27 10.573 14.379 10.573C14.968 11.107 15.744 12.145 16.025 13.33C16.154 13.865 16.184 14.434 16.046 15C16.113 15.028 16.181 15.061 16.251 15.067C17.283 15.601 17.664 16.005 17.481 16.604V16.561C17.42 16.558 17.361 16.561 17.3 16.561H17.285C17.436 16.094 17.103 15.736 16.22 15.337C15.305 14.937 14.574 15.001 14.449 15.802C14.442 15.845 14.437 15.868 14.432 15.937C14.364 15.96 14.293 15.99 14.223 16.001C13.793 16.269 13.561 16.67 13.43 17.188C13.3 17.721 13.26 18.344 13.225 19.057V19.06C13.204 19.394 13.054 19.898 12.906 20.411C11.406 21.483 9.326 21.949 7.557 20.745C7.446 20.552 7.311 20.371 7.155 20.212C7.081 20.087 6.987 19.975 6.88 19.878C7.062 19.878 7.218 19.849 7.345 19.811C7.49 19.744 7.602 19.623 7.659 19.477C7.767 19.21 7.659 18.78 7.314 18.314C6.969 17.847 6.383 17.319 5.526 16.793C4.896 16.394 4.54 15.923 4.376 15.397C4.211 14.863 4.233 14.312 4.361 13.752C4.606 12.682 5.234 11.642 5.635 10.989C5.742 10.924 5.672 11.124 5.227 11.963C4.831 12.714 4.086 14.46 5.105 15.817C5.143 14.828 5.363 13.852 5.752 12.941C6.316 11.663 7.495 9.437 7.588 7.673C7.636 7.709 7.805 7.808 7.877 7.875C8.095 8.008 8.257 8.208 8.467 8.34C8.678 8.541 8.944 8.675 9.343 8.675C9.382 8.678 9.418 8.681 9.454 8.681C9.865 8.681 10.183 8.547 10.45 8.413C10.74 8.279 10.971 8.079 11.19 8.013H11.195C11.662 7.878 12.031 7.611 12.24 7.313ZM14.426 16.271C14.463 16.872 14.769 17.516 15.308 17.648C15.896 17.782 16.742 17.315 17.099 16.883L17.31 16.874C17.625 16.866 17.887 16.884 18.157 17.141L18.16 17.144C18.368 17.343 18.465 17.675 18.551 18.02C18.636 18.421 18.705 18.8 18.96 19.086C19.446 19.613 19.605 19.992 19.596 20.226L19.599 20.22V20.238L19.596 20.226C19.581 20.488 19.411 20.622 19.098 20.821C18.468 21.222 17.352 21.533 16.641 22.391C16.023 23.128 15.27 23.53 14.605 23.582C13.941 23.635 13.368 23.382 13.031 22.684L13.026 22.681C12.816 22.28 12.906 21.656 13.082 20.991C13.258 20.323 13.51 19.646 13.545 19.093C13.582 18.379 13.621 17.758 13.74 17.279C13.86 16.814 14.048 16.482 14.381 16.295L14.426 16.273V16.271ZM3.611 16.32H3.621C3.674 16.32 3.726 16.325 3.778 16.334C4.154 16.389 4.484 16.667 4.801 17.086L5.711 18.75L5.714 18.753C5.957 19.286 6.468 19.817 6.903 20.391C7.337 20.989 7.673 21.522 7.632 21.961V21.967C7.575 22.711 7.153 23.115 6.507 23.261C5.862 23.396 4.987 23.263 4.112 22.797C3.144 22.261 1.994 22.328 1.255 22.195C0.886 22.129 0.644 21.994 0.532 21.794C0.421 21.595 0.419 21.193 0.655 20.564V20.561L0.657 20.558C0.774 20.224 0.687 19.805 0.63 19.439C0.575 19.038 0.547 18.73 0.673 18.499C0.833 18.165 1.069 18.1 1.362 17.966C1.657 17.831 2.003 17.764 2.278 17.497H2.28V17.494C2.536 17.226 2.725 16.893 2.948 16.656C3.138 16.455 3.328 16.32 3.611 16.32ZM10.77 7.246C10.335 7.447 9.825 7.781 9.282 7.781C8.74 7.781 8.312 7.514 8.003 7.315C7.848 7.181 7.723 7.047 7.629 6.98C7.465 6.846 7.485 6.646 7.555 6.646C7.664 6.662 7.684 6.781 7.754 6.847C7.85 6.913 7.969 7.046 8.115 7.18C8.406 7.38 8.795 7.647 9.281 7.647C9.766 7.647 10.334 7.38 10.679 7.181C10.874 7.046 11.124 6.847 11.327 6.714C11.483 6.577 11.476 6.446 11.606 6.446C11.735 6.462 11.64 6.58 11.459 6.779C11.278 6.914 10.998 7.114 10.769 7.247V7.246H10.77ZM9.688 5.662V5.64C9.682 5.621 9.701 5.598 9.717 5.59C9.791 5.547 9.897 5.563 9.977 5.594C10.04 5.594 10.137 5.661 10.127 5.729C10.121 5.778 10.042 5.795 9.992 5.795C9.937 5.795 9.9 5.752 9.851 5.727C9.799 5.709 9.705 5.719 9.688 5.662ZM9.137 5.662C9.117 5.72 9.024 5.711 8.971 5.728C8.924 5.753 8.885 5.796 8.832 5.796C8.781 5.796 8.701 5.777 8.695 5.728C8.686 5.662 8.783 5.595 8.845 5.595C8.926 5.564 9.029 5.548 9.104 5.59C9.123 5.599 9.14 5.62 9.134 5.64V5.661H9.137V5.662Z" fill="#705B25"/>
</svg>
