<svg width="24" height="17" viewBox="0 0 24 17" fill="none" xmlns="http://www.w3.org/2000/svg">
<path d="M16.405 1.67599C16.29 1.67599 16.212 1.68999 16.131 1.70899V1.72199H16.145C16.199 1.82599 16.291 1.90199 16.359 1.99499C16.413 2.10199 16.459 2.20899 16.513 2.31499L16.527 2.29999C16.621 2.23399 16.667 2.12799 16.667 1.96699C16.627 1.91999 16.621 1.87299 16.587 1.82699C16.547 1.75999 16.461 1.72699 16.407 1.67399L16.405 1.67599ZM5.77 14.87H4.843C4.813 13.308 4.72 11.84 4.573 10.46H4.565L3.155 14.87H2.45L1.05 10.46H1.04C0.937 11.783 0.872 13.253 0.845 14.87H0C0.055 12.904 0.192 11.06 0.41 9.33999H1.56L2.895 13.404H2.903L4.25 9.33999H5.345C5.587 11.355 5.729 13.2 5.773 14.87H5.77ZM9.787 10.79C9.409 12.835 8.911 14.323 8.295 15.25C7.813 15.966 7.285 16.323 6.712 16.323C6.559 16.323 6.372 16.277 6.146 16.185V15.691C6.256 15.708 6.386 15.717 6.532 15.717C6.8 15.717 7.015 15.642 7.179 15.495C7.376 15.315 7.474 15.113 7.474 14.89C7.474 14.735 7.397 14.42 7.244 13.946L6.23 10.79H7.14L7.867 13.15C8.031 13.686 8.1 14.06 8.072 14.273C8.472 13.209 8.75 12.046 8.907 10.79H9.787ZM22.112 14.87H19.482V9.33999H20.367V14.19H22.112V14.87ZM18.792 15.005L17.776 14.505C17.866 14.429 17.953 14.347 18.031 14.255C18.464 13.749 18.679 12.997 18.679 12.002C18.679 10.172 17.961 9.25599 16.524 9.25599C15.82 9.25599 15.27 9.48799 14.874 9.95299C14.444 10.461 14.228 11.209 14.228 12.198C14.228 13.17 14.418 13.884 14.802 14.338C15.152 14.748 15.679 14.953 16.385 14.953C16.649 14.953 16.891 14.92 17.11 14.855L18.435 15.627L18.795 15.005H18.792ZM15.5 13.763C15.275 13.403 15.163 12.823 15.163 12.027C15.163 10.634 15.587 9.93699 16.433 9.93699C16.876 9.93699 17.203 10.104 17.41 10.437C17.634 10.799 17.746 11.373 17.746 12.16C17.746 13.564 17.322 14.268 16.476 14.268C16.031 14.268 15.706 14.101 15.498 13.768L15.5 13.763ZM13.842 13.338C13.842 13.808 13.67 14.194 13.326 14.494C12.982 14.794 12.523 14.944 11.942 14.944C11.399 14.944 10.878 14.772 10.369 14.429L10.606 13.953C11.044 14.173 11.439 14.281 11.796 14.281C12.128 14.281 12.389 14.208 12.579 14.061C12.767 13.914 12.879 13.707 12.879 13.446C12.879 13.116 12.649 12.836 12.231 12.601C11.843 12.388 11.068 11.944 11.068 11.944C10.646 11.637 10.436 11.308 10.436 10.767C10.436 10.317 10.593 9.95699 10.906 9.68199C11.221 9.40399 11.626 9.26699 12.126 9.26699C12.638 9.26699 13.106 9.40299 13.526 9.67699L13.313 10.153C12.953 10.001 12.598 9.92299 12.249 9.92299C11.966 9.92299 11.747 9.99099 11.595 10.129C11.442 10.265 11.347 10.439 11.347 10.653C11.347 10.981 11.581 11.263 12.013 11.503C12.406 11.718 13.2 12.173 13.2 12.173C13.633 12.478 13.848 12.803 13.848 13.341L13.842 13.338ZM23.224 7.48599C22.689 7.47199 22.274 7.52599 21.927 7.67399C21.827 7.71399 21.667 7.71399 21.653 7.84099C21.708 7.89399 21.716 7.98099 21.763 8.05499C21.843 8.18899 21.981 8.36799 22.109 8.46199C22.249 8.57199 22.389 8.67799 22.536 8.77199C22.796 8.93199 23.091 9.02699 23.346 9.18799C23.491 9.28199 23.639 9.40099 23.786 9.50099C23.859 9.55099 23.906 9.64099 24 9.67299V9.65299C23.954 9.59299 23.94 9.50599 23.895 9.43899C23.828 9.37199 23.761 9.31199 23.695 9.24599C23.501 8.98599 23.26 8.75899 23 8.57099C22.786 8.42499 22.318 8.22099 22.23 7.97599L22.217 7.96199C22.363 7.94899 22.537 7.89599 22.677 7.85599C22.904 7.79599 23.112 7.80899 23.347 7.74999C23.453 7.72299 23.56 7.68999 23.667 7.65599V7.59599C23.547 7.47599 23.457 7.31299 23.333 7.20099C22.993 6.90599 22.616 6.61899 22.229 6.37799C22.019 6.24399 21.753 6.15799 21.532 6.04399C21.452 6.00399 21.318 5.98399 21.272 5.91699C21.152 5.77099 21.082 5.57699 20.997 5.40299C20.805 5.03499 20.617 4.62799 20.45 4.23999C20.33 3.97799 20.257 3.71699 20.11 3.47699C19.42 2.33999 18.673 1.65099 17.524 0.976994C17.277 0.836994 16.981 0.776994 16.668 0.702994C16.501 0.694994 16.334 0.682994 16.168 0.675994C16.058 0.628994 15.952 0.501994 15.858 0.440994C15.478 0.200994 14.494 -0.319006 14.214 0.368994C14.034 0.802994 14.481 1.23099 14.636 1.45099C14.751 1.60399 14.896 1.77899 14.976 1.95099C15.023 2.06699 15.036 2.18599 15.083 2.30699C15.189 2.60099 15.29 2.92899 15.43 3.20399C15.503 3.34399 15.583 3.49099 15.677 3.61699C15.731 3.68999 15.823 3.72399 15.844 3.84399C15.75 3.97999 15.744 4.17799 15.69 4.34399C15.45 5.10099 15.544 6.03699 15.884 6.59399C15.991 6.75999 16.246 7.12799 16.587 6.98699C16.887 6.86699 16.821 6.48699 16.907 6.15199C16.927 6.07199 16.914 6.01899 16.955 5.96499V5.97999C17.049 6.16799 17.143 6.34699 17.229 6.53499C17.435 6.86299 17.795 7.20299 18.096 7.42999C18.256 7.54999 18.383 7.75799 18.583 7.83199V7.81199H18.568C18.525 7.75399 18.468 7.72599 18.414 7.67899C18.294 7.55899 18.159 7.41199 18.064 7.27899C17.784 6.90199 17.537 6.48899 17.317 6.06099C17.207 5.85099 17.115 5.62499 17.027 5.41799C16.987 5.33799 16.987 5.21799 16.92 5.17799C16.82 5.32399 16.673 5.45099 16.6 5.63099C16.473 5.91899 16.46 6.27299 16.412 6.64099C16.385 6.64799 16.398 6.64099 16.385 6.65499C16.171 6.60299 16.098 6.38099 16.018 6.19499C15.818 5.71999 15.785 4.95699 15.958 4.40999C16.005 4.26999 16.205 3.82799 16.125 3.69399C16.083 3.56699 15.951 3.49399 15.878 3.39099C15.791 3.26699 15.698 3.10599 15.638 2.96399C15.478 2.58999 15.398 2.17599 15.224 1.80199C15.144 1.62899 15.004 1.44799 14.89 1.28899C14.763 1.10899 14.623 0.981994 14.522 0.768994C14.489 0.695994 14.442 0.574994 14.495 0.494994C14.509 0.440994 14.537 0.419994 14.589 0.404994C14.677 0.332994 14.924 0.426994 15.011 0.466994C15.258 0.566994 15.466 0.660994 15.673 0.800994C15.767 0.866994 15.868 0.993994 15.988 1.02699H16.128C16.342 1.07399 16.583 1.04099 16.783 1.09999C17.138 1.21399 17.458 1.37999 17.745 1.55999C18.621 2.11599 19.341 2.90499 19.83 3.84599C19.91 3.99999 19.945 4.14099 20.018 4.30099C20.158 4.63099 20.331 4.96399 20.473 5.28299C20.613 5.59799 20.748 5.91899 20.949 6.17999C21.049 6.31999 21.451 6.39299 21.631 6.46599C21.764 6.52599 21.971 6.58099 22.091 6.65399C22.321 6.79399 22.545 6.95399 22.761 7.10799C22.871 7.18399 23.204 7.35099 23.224 7.48599Z" fill="#1A3D51"/>
</svg>
