<svg width="501" height="301" viewBox="0 0 501 301" fill="none" xmlns="http://www.w3.org/2000/svg">
<path d="M250.108 0.019989C158.718 0.019989 87.478 57.222 0.108002 149.963C75.385 229.261 138.552 300.016 250.108 300.016C361.664 300.016 443.655 210.444 500.108 151.639C442.32 82.751 360.322 0.019989 250.108 0.019989ZM250.108 283.349C151.076 283.349 91.295 221.927 23.09 149.979C104.242 65.36 168.769 16.687 250.108 16.687C346.405 16.687 421.665 86.129 477.663 150.972C422.593 208.393 348.033 283.349 250.108 283.349Z" fill="black"/>
<path d="M250.108 50.027C194.965 50.027 150.108 94.884 150.108 150.019C150.108 205.154 194.965 250.011 250.108 250.011C305.251 250.011 350.108 205.154 350.108 150.019C350.108 94.884 305.252 50.027 250.108 50.027ZM250.108 233.345C204.16 233.345 166.775 195.967 166.775 150.02C166.775 104.073 204.161 66.694 250.108 66.694C296.055 66.694 333.441 104.072 333.441 150.02C333.442 195.967 296.056 233.345 250.108 233.345Z" fill="black"/>
<path d="M250.108 91.687C217.946 91.687 191.775 117.859 191.775 150.02C191.775 182.181 217.947 208.353 250.108 208.353C282.27 208.353 308.441 182.18 308.441 150.02C308.442 117.858 282.27 91.687 250.108 91.687ZM250.108 191.687C227.135 191.687 208.441 172.994 208.441 150.02C208.441 127.046 227.134 108.353 250.108 108.353C273.082 108.353 291.775 127.045 291.775 150.02C291.775 172.993 273.082 191.687 250.108 191.687Z" fill="black"/>
</svg>
