<svg width="798" height="788" viewBox="0 0 798 788" fill="none" xmlns="http://www.w3.org/2000/svg">
<path d="M780.838 0H255.041V263.631H513.758C522.975 263.631 530.452 271.109 530.452 280.326V535.472H797.532V16.7249C797.541 12.292 795.785 8.03787 792.654 4.90046C789.522 1.76305 785.271 0 780.838 0Z" fill="black"/>
<path opacity="0.405" d="M255.01 0V263.631H8.34789C4.95841 263.625 1.90781 261.574 0.623656 258.437C-0.660493 255.3 0.075835 251.698 2.48806 249.317L255.01 0ZM544.675 785.064C542.273 787.423 538.692 788.112 535.587 786.813C532.482 785.513 530.458 782.479 530.452 779.113V535.472H797.532L544.675 785.034V785.064Z" fill="black"/>
<path opacity="0.405" d="M255.01 263.631H522.12C526.698 263.631 530.452 267.355 530.452 271.963V535.472H271.735C262.515 535.472 255.041 527.998 255.041 518.778V263.631H255.01Z" fill="black"/>
</svg>
